<svg xmlns:xlink="http://www.w3.org/1999/xlink" xmlns="http://www.w3.org/2000/svg" height="15" width="234" viewBox="0 0 234 15">
    <path fill="#fff" fill-rule="evenodd" d="M 233.87 3.23 C 232.45 3.23 231.07 3.21 229.62 3.23 C 229.62 7.03 229.65 10.83 229.65 14.65 C 229.65 14.74 229.6 14.76 229.51 14.76 C 229.51 14.76 226.83 14.76 226.83 14.76 C 226.74 14.76 226.69 14.76 226.69 14.67 C 226.69 10.81 226.69 7.2 226.71 3.23 C 225.85 3.23 223.38 3.23 222.43 3.23 C 222.34 3.23 222.29 3.23 222.29 3.14 C 222.29 3.14 222.29 0.45 222.29 0.45 C 222.29 0.39 222.34 0.34 222.43 0.34 C 222.43 0.34 233.89 0.34 233.89 0.34 C 233.98 0.34 234 0.39 234 0.43 C 234 0.43 234 3.12 234 3.12 C 234 3.21 233.96 3.23 233.87 3.23 Z M 209.28 15 C 207.68 14.92 206.24 14.11 205.39 12.73 C 205.22 12.42 204.99 12.08 205.02 11.68 C 205.84 11.16 206.66 10.72 207.48 10.24 C 207.66 10.63 207.77 11.05 208.06 11.4 C 208.55 11.94 209.19 12.31 209.99 12.21 C 211.04 12.03 211.97 10.77 211.44 9.76 C 210.73 8.45 209.13 8.34 207.9 7.75 C 206.35 6.99 205.24 5.43 205.31 3.77 C 205.35 2.18 206.59 0.58 208.17 0.17 C 210.19 -0.35 212.37 0.41 213.39 2.27 C 213.44 2.29 213.37 2.44 213.37 2.44 C 213.37 2.44 211.39 3.75 211.08 3.82 C 210.75 3.27 210.28 2.64 209.62 2.64 C 208.04 2.62 207.68 4.08 208.57 4.91 C 210.24 6 212.55 5.94 213.75 7.84 C 214.61 9.19 214.84 11.11 213.97 12.53 C 212.97 14.13 211.35 15.13 209.28 15 Z M 186.56 14.76 C 186.47 14.76 186.43 14.76 186.43 14.67 C 186.43 14.44 186.43 0.54 186.43 0.45 C 186.43 0.37 186.47 0.32 186.56 0.32 C 189.76 0.32 196.07 0.32 196.18 0.32 C 196.27 0.34 196.29 0.39 196.29 0.43 C 196.29 0.43 196.29 3.12 196.29 3.12 C 196.29 3.21 196.27 3.25 196.18 3.25 C 196.18 3.25 189.23 3.25 189.23 3.25 C 189.23 3.25 189.23 5.98 189.23 5.98 C 189.23 5.98 193.94 5.98 194.38 5.98 C 194.49 5.98 194.49 6.02 194.49 6.09 C 194.49 6.09 194.49 8.76 194.49 8.76 C 194.49 8.84 194.47 8.86 194.38 8.86 C 192.52 8.86 189.36 8.86 189.36 8.86 C 189.36 8.86 189.36 11.88 189.36 11.88 C 189.36 11.88 194.12 11.88 196.49 11.88 C 196.58 11.88 196.58 11.92 196.58 11.99 C 196.58 11.99 196.58 14.65 196.58 14.65 C 196.58 14.74 196.56 14.76 196.47 14.76 C 195.98 14.76 186.72 14.76 186.56 14.76 Z M 172.84 14.59 C 172.75 14.78 172.82 14.76 172.57 14.76 C 172.57 14.76 169.95 14.76 169.95 14.76 C 169.82 14.76 169.86 14.78 169.77 14.59 C 169.77 14.59 164.18 0.48 164.18 0.48 C 164.13 0.3 164.31 0.34 164.31 0.34 C 164.31 0.34 167.27 0.34 167.27 0.34 C 167.27 0.34 171.33 10.59 171.33 10.59 C 171.33 10.59 175.2 0.34 175.2 0.34 C 175.2 0.34 178.06 0.34 178.06 0.34 C 178.06 0.34 178.24 0.3 178.17 0.48 C 178.17 0.48 172.84 14.59 172.84 14.59 Z M 155.34 14.76 C 153.83 12.8 152.34 10.9 150.92 8.99 C 150.79 8.99 150.32 8.99 150.03 8.99 C 150.03 8.99 149.94 8.97 149.94 9.08 C 149.94 9.08 149.94 14.65 149.94 14.65 C 149.94 14.74 149.92 14.76 149.83 14.76 C 149.83 14.76 147.14 14.76 147.14 14.76 C 147.05 14.76 147.01 14.76 147.01 14.67 C 147.01 14.67 147.01 0.45 147.01 0.45 C 147.01 0.39 147.05 0.34 147.17 0.34 C 148.52 0.34 149.7 0.32 150.83 0.32 C 152.96 0.34 154.01 0.87 155.03 2.29 C 155.63 3.12 155.92 4.17 155.83 5.17 C 155.72 6.4 155.07 7.53 153.79 8.03 C 155.43 10.26 157.34 12.27 158.81 14.57 C 158.85 14.7 158.72 14.74 158.65 14.76 C 158.65 14.76 155.34 14.76 155.34 14.76 Z M 152.68 4.12 C 152.28 3.12 151.1 3.18 150.12 3.18 C 150.12 3.18 149.94 3.18 149.94 3.18 C 149.94 3.18 149.94 6.11 149.94 6.11 C 150.74 6.13 151.83 6.24 152.45 5.56 C 152.81 5.19 152.85 4.54 152.68 4.12 Z M 135.71 14.76 C 135.71 14.76 134.56 11.88 134.56 11.88 C 134.56 11.88 129.05 11.88 129.05 11.88 C 129.05 11.88 127.91 14.76 127.91 14.76 C 127.91 14.76 124.71 14.76 124.71 14.76 C 124.71 14.76 124.63 14.78 124.67 14.65 C 124.67 14.65 130.13 0.43 130.13 0.43 C 130.13 0.43 130.18 0.34 130.27 0.34 C 130.27 0.34 133.09 0.34 133.09 0.34 C 133.24 0.34 133.2 0.32 133.27 0.45 C 133.27 0.45 138.8 14.59 138.8 14.59 C 138.8 14.59 138.91 14.76 138.64 14.76 C 138.64 14.76 135.71 14.76 135.71 14.76 Z M 131.8 4.21 C 131.8 4.21 129.96 8.99 129.96 8.99 C 129.96 8.99 133.47 8.99 133.47 8.99 C 133.47 8.99 131.8 4.21 131.8 4.21 Z M 113.59 14.76 C 113.52 14.76 113.48 14.76 113.48 14.67 C 113.48 12.56 113.48 14.57 113.48 8.78 C 113.48 8.78 106.86 8.78 106.86 8.78 C 106.86 10.74 106.88 12.69 106.86 14.63 C 106.86 14.74 106.84 14.76 106.75 14.76 C 106.75 14.76 104.06 14.76 104.06 14.76 C 103.97 14.76 103.93 14.76 103.93 14.67 C 103.93 14.67 103.93 0.45 103.93 0.45 C 103.93 0.39 103.97 0.34 104.06 0.34 C 104.06 0.34 106.75 0.34 106.75 0.34 C 106.86 0.34 106.86 0.39 106.86 0.43 C 106.86 0.44 106.86 0.45 106.86 0.45 C 106.86 0.45 106.86 0.45 106.86 0.45 C 106.86 0.47 106.86 0.83 106.86 5.89 C 106.86 5.89 113.48 5.89 113.48 5.89 C 113.48 4.87 113.48 1.66 113.48 0.45 C 113.48 0.39 113.52 0.34 113.61 0.34 C 113.61 0.34 116.3 0.34 116.3 0.34 C 116.39 0.34 116.41 0.39 116.41 0.43 C 116.41 0.43 116.41 14.65 116.41 14.65 C 116.41 14.74 116.39 14.76 116.3 14.76 C 116.3 14.76 113.59 14.76 113.59 14.76 Z M 76.08 8.14 C 76.08 10.31 76.08 12.49 76.08 14.65 C 76.08 14.74 76.06 14.76 75.97 14.76 C 75.97 14.76 73.28 14.76 73.28 14.76 C 73.19 14.76 73.15 14.76 73.15 14.67 C 73.15 12.45 73.15 8.14 73.15 8.14 C 73.15 8.14 68.15 0.45 68.15 0.45 C 68.15 0.45 68.13 0.34 68.22 0.34 C 68.22 0.34 71.22 0.34 71.22 0.34 C 71.22 0.34 74.62 5.26 74.62 5.26 C 74.62 5.26 77.99 0.34 77.99 0.34 C 77.99 0.34 80.88 0.34 80.88 0.34 C 80.97 0.34 80.95 0.45 80.95 0.45 C 80.95 0.45 76.08 8.14 76.08 8.14 Z M 52.45 14.76 C 52.45 14.76 52.32 14.76 52.32 14.67 C 52.32 14.67 52.32 0.45 52.32 0.45 C 52.32 0.39 52.36 0.34 52.45 0.34 C 52.45 0.34 55.14 0.34 55.14 0.34 C 55.25 0.34 55.25 0.39 55.25 0.45 C 55.25 0.45 55.25 0.56 55.25 0.56 C 55.25 0.56 55.25 11.88 55.25 11.88 C 57.07 11.88 58.89 11.88 60.71 11.88 C 60.8 11.88 60.83 11.92 60.83 11.99 C 60.83 11.99 60.83 14.63 60.83 14.63 C 60.83 14.74 60.8 14.76 60.71 14.76 C 57.96 14.76 55.21 14.76 52.45 14.76 Z M 40.19 14.76 C 40.1 14.76 40.06 14.76 40.06 14.67 C 40.06 14.67 40.06 0.45 40.06 0.45 C 40.06 0.39 40.1 0.34 40.19 0.34 C 40.19 0.34 42.88 0.34 42.88 0.34 C 42.99 0.34 42.99 0.39 42.99 0.45 C 42.99 0.45 42.99 14.65 42.99 14.65 C 42.99 14.74 42.97 14.76 42.88 14.76 C 42.88 14.76 40.19 14.76 40.19 14.76 Z M 30.09 14.76 C 30.09 14.76 28.94 11.88 28.94 11.88 C 28.94 11.88 23.43 11.88 23.43 11.88 C 23.43 11.88 22.29 14.76 22.29 14.76 C 22.29 14.76 19.09 14.76 19.09 14.76 C 19.09 14.76 19.01 14.78 19.05 14.65 C 19.05 14.65 24.52 0.43 24.52 0.43 C 24.52 0.43 24.56 0.34 24.65 0.34 C 24.65 0.34 27.47 0.34 27.47 0.34 C 27.63 0.34 27.58 0.32 27.65 0.45 C 27.65 0.45 33.18 14.59 33.18 14.59 C 33.18 14.59 33.29 14.76 33.02 14.76 C 33.02 14.76 30.09 14.76 30.09 14.76 Z M 26.18 4.21 C 26.18 4.21 24.34 8.99 24.34 8.99 C 24.34 8.99 27.85 8.99 27.85 8.99 C 27.85 8.99 26.18 4.21 26.18 4.21 Z M 5.62 14.76 C 5.22 14.76 1.86 14.76 0.13 14.76 C 0 14.76 0 14.52 0 14.52 C 0 14.52 0 0.58 0 0.48 C -0.02 0.3 0.17 0.34 0.17 0.34 C 0.17 0.34 3.82 0.34 5.28 0.34 C 8.95 0.52 11.93 2.88 12.64 6.2 C 13.15 8.56 12.44 10.85 10.77 12.49 C 9.39 13.87 7.55 14.7 5.62 14.76 Z M 9.42 5.41 C 8.08 3.16 5.35 3.21 2.93 3.23 C 2.93 3.77 2.93 11.31 2.93 11.88 C 2.93 11.88 5.64 11.88 5.64 11.88 C 6.62 11.88 8.35 11.22 9.22 10.09 C 10.22 8.76 10.24 6.81 9.42 5.41 Z"/>
</svg>
