<svg focusable="false" xmlns="http://www.w3.org/2000/svg" xmlns:xlink="http://www.w3.org/1999/xlink" id="logo" viewBox="0 0 45 45" preserveAspectRatio="xMidYMid meet" fill="#ffffff" width="100%" height="100%"> <path fill="#e51937" fill-rule="evenodd" stroke-width=".611" d="M45 22.53C45 34.987 34.925 45 22.408 45 10.075 45 0 34.925 0 22.53 0 10.076 10.075 0 22.47 0 34.924 0 45 10.075 45 22.53zm-21.92-4.518c-1.404-1.099-2.137-1.343-3.541-1.343-2.504.061-4.091 1.587-4.091 4.09v3.848c0 .915.488 1.465 1.22 1.465.734 0 1.161-.55 1.161-1.404v-3.725c0-1.282.733-1.954 2.015-1.893 1.16 0 1.893.733 1.954 1.954v3.847c0 .977.855 1.526 1.71 1.16.549-.244.732-.733.732-1.282v-3.542c0-1.282.794-2.137 2.015-2.076 1.221 0 1.893.794 1.954 2.137v3.542c0 .855.488 1.404 1.221 1.404.733 0 1.16-.488 1.16-1.343v-3.969c0-2.015-1.038-3.297-2.93-3.847-1.283-.366-2.504-.244-3.603.428-.305.122-.61.366-.977.55zm-8.12 3.48v-3.48c0-.794-.428-1.282-1.16-1.343-4.153-.366-8.122 1.77-10.014 5.556-.428.855-.611 1.832-.794 2.809-.122.61.244 1.099.794 1.099 2.259 0 4.579.061 6.838 0 .672 0 1.1-.488 1.1-1.221 0-.733-.49-1.221-1.344-1.221H6.533c-.427 0-.488-.184-.366-.489 1.038-2.503 3.358-3.969 5.8-4.213.428-.06.611.122.611.55v4.884c0 .184 0 .367.061.55.122.733.672 1.099 1.343 1.099.672-.061 1.038-.489 1.038-1.282-.06-1.038-.06-2.137-.06-3.297zm21.187 5.068c2.137 0 3.968-1.16 4.64-2.93.244-.672.061-1.222-.55-1.466-.61-.244-1.22 0-1.526.55-.61 1.22-1.588 1.71-2.93 1.587-1.344-.183-2.382-1.282-2.443-2.625-.061-1.344.794-2.565 2.076-2.87 1.526-.366 2.809.183 3.358 1.465.183.428.489.672.916.672.916.122 1.526-.672 1.16-1.588-.733-1.892-2.198-2.747-4.152-2.93-2.93-.306-5.495 1.893-5.617 4.884-.122 2.87 2.259 5.251 5.068 5.251z" clip-rule="evenodd"></path><path fill="#fff" fill-rule="evenodd" stroke-width=".611" d="M23.08 18.012c-1.404-1.099-2.137-1.343-3.541-1.343-2.504.061-4.091 1.587-4.091 4.09v3.848c0 .915.488 1.465 1.22 1.465.734 0 1.161-.55 1.161-1.404v-3.725c0-1.282.733-1.954 2.015-1.893 1.16 0 1.893.733 1.954 1.954v3.847c0 .977.855 1.526 1.71 1.16.549-.244.732-.733.732-1.282v-3.542c0-1.282.794-2.137 2.015-2.076 1.221 0 1.893.794 1.954 2.137v3.542c0 .855.488 1.404 1.221 1.404.733 0 1.16-.488 1.16-1.343v-3.969c0-2.015-1.038-3.297-2.93-3.847-1.283-.366-2.504-.244-3.603.428-.305.122-.61.366-.977.55zm-8.12 3.48v-3.48c0-.794-.428-1.282-1.16-1.343-4.153-.366-8.122 1.77-10.014 5.556-.428.855-.611 1.832-.794 2.809-.122.61.244 1.099.794 1.099 2.259 0 4.579.061 6.838 0 .672 0 1.1-.488 1.1-1.221 0-.733-.49-1.221-1.344-1.221H6.533c-.427 0-.488-.184-.366-.489 1.038-2.503 3.358-3.969 5.8-4.213.428-.06.611.122.611.55v4.884c0 .184 0 .367.061.55.122.733.672 1.099 1.343 1.099.672-.061 1.038-.489 1.038-1.282-.06-1.038-.06-2.137-.06-3.297zm21.187 5.068c2.137 0 3.968-1.16 4.64-2.93.244-.672.061-1.222-.55-1.466-.61-.244-1.22 0-1.526.55-.61 1.22-1.588 1.71-2.93 1.587-1.344-.183-2.382-1.282-2.443-2.625-.061-1.344.794-2.565 2.076-2.87 1.526-.366 2.809.183 3.358 1.465.183.428.489.672.916.672.916.122 1.526-.672 1.16-1.588-.733-1.892-2.198-2.747-4.152-2.93-2.93-.306-5.495 1.893-5.617 4.884-.122 2.87 2.259 5.251 5.068 5.251z" clip-rule="evenodd"></path></svg>
