
<svg width="40px" height="40px" viewBox="0 0 50 49" version="1.1" xmlns="http://www.w3.org/2000/svg" xmlns:xlink="http://www.w3.org/1999/xlink">
    <g id="Page-1" stroke="none" stroke-width="1" fill="none" fill-rule="evenodd">
        <g id="Best" transform="translate(-1045.000000, -169.000000)" fill="#FFFFFF">
            <g id="Group" transform="translate(390.000000, 157.000000)">
                <g id="Icon/Squad/Basic" transform="translate(655.000000, 12.000000)">
                    <g id="business-affiliate-network">
                        <path d="M20,18.6068092 L16.8242155,15.4619636 C17.1941127,14.7578068 17.4229381,13.9605384 17.4229381,13.1004196 C17.4229381,10.3745764 15.3157456,8.16666667 12.7131352,8.16666667 C10.1105249,8.16666667 8,10.3734125 8,13.1004196 C8,15.8274268 10.1105249,18.0365004 12.7131352,18.0365004 C13.6306582,18.0365004 14.4793113,17.7501821 15.2035546,17.2753127 L18.3748959,20.4166667 C18.8547626,19.7520823 19.3957234,19.143365 20,18.6068092 Z" id="Shape"></path>
                        <path d="M31.9896767,16.3333333 L36.1179027,9.2246806 C36.524314,9.34365852 36.9459386,9.42927814 37.3882097,9.42927814 C39.9386036,9.42927814 42,7.31880999 42,4.71352713 C42,2.10935621 39.9386036,0 37.3882097,0 C34.8421625,0 32.7818528,2.10824426 32.7818528,4.71352713 C32.7818528,6.00671704 33.2914969,7.17536932 34.1151861,8.02822974 L30,15.1168675 C30.7074165,15.4448907 31.3746265,15.8540858 31.9896767,16.3333333 Z" id="Shape"></path>
                        <path d="M45.6663502,22.4583333 C43.8011833,22.4583333 42.2213133,23.8540462 41.6087941,25.8000963 L36.2116719,25.1726879 C36.2116719,25.2208574 36.2178073,25.2666185 36.2178073,25.3135838 C36.2178073,26.1421002 36.140092,26.9513487 36,27.7328998 L41.3950771,28.3603083 C41.7212768,30.7976879 43.5036155,32.6666667 45.6663502,32.6666667 C48.0612081,32.6666667 50,30.3834297 50,27.5631021 C50,24.7439788 48.0612081,22.4583333 45.6663502,22.4583333 Z" id="Shape"></path>
                        <path d="M31.152692,40.1182029 L29.7613473,34.7083333 C28.9760629,34.9517565 28.1589426,35.1259299 27.3064491,35.2130167 L28.7001521,40.6239355 C27.1024639,41.367845 26,42.837827 26,44.5543799 C26,47.0116946 28.2355845,49 31.0029456,49 C33.7644112,49 35.9999957,47.0106453 35.9999957,44.5543799 C36.003533,42.1421824 33.8434113,40.1895511 31.152692,40.1182029 Z" id="Shape"></path>
                        <path d="M15.2703583,26.5416667 L8.28239048,29.1077404 C7.47616832,27.7576662 6.08814731,26.8622802 4.50867513,26.8622802 C2.01661903,26.8622802 0,29.0739303 0,31.8043913 C0,34.5383499 2.01661903,36.75 4.50867513,36.75 C6.998604,36.75 9.02054112,34.5383499 9.02054112,31.8043913 C9.02054112,31.6901363 8.99820515,31.5852082 8.9896962,31.473285 L16,28.900216 C15.6841056,28.1528952 15.4330918,27.3659348 15.2703583,26.5416667 Z" id="Shape"></path>
                        <ellipse id="Oval" cx="26" cy="26.5416667" rx="8" ry="8.16666667"></ellipse>
                    </g>
                </g>
            </g>
        </g>
    </g>
</svg>