<?xml version="1.0" standalone="no"?>
<!DOCTYPE svg PUBLIC "-//W3C//DTD SVG 20010904//EN"
 "http://www.w3.org/TR/2001/REC-SVG-20010904/DTD/svg10.dtd">
<svg version="1.0" xmlns="http://www.w3.org/2000/svg"
 width="192.000000pt" height="60.000000pt" viewBox="0 0 192.000000 60.000000"
 preserveAspectRatio="xMidYMid meet">
<metadata>
Created by potrace 1.15, written by Peter Selinger 2001-2017
</metadata>
<g transform="translate(0.000000,60.000000) scale(0.100000,-0.100000)"
fill="#fff" stroke="none">
<path d="M849 575 c-34 -19 -64 -66 -134 -213 l-59 -123 -17 33 c-9 18 -31 70
-49 115 l-34 83 22 23 c12 13 22 26 22 30 0 4 -65 7 -145 7 -122 0 -145 -2
-145 -15 0 -8 6 -15 13 -15 21 0 41 -28 73 -99 l28 -63 -29 -55 -29 -55 -24
48 c-14 27 -40 83 -58 126 -28 65 -31 78 -18 89 8 6 14 18 14 25 0 11 -28 14
-140 14 -115 0 -140 -3 -140 -14 0 -8 9 -17 20 -21 31 -10 58 -55 157 -269 51
-111 100 -202 108 -204 10 -2 36 39 82 132 37 75 70 136 73 136 3 0 32 -61 65
-135 42 -97 63 -135 74 -133 9 2 52 82 102 188 103 218 116 235 161 223 94
-23 149 3 151 72 2 69 -76 107 -144 70z"/>
<path d="M1297 396 c-44 -22 -47 -22 -47 -5 0 12 -7 19 -18 19 -21 0 -182 -47
-191 -55 -3 -3 8 -16 24 -29 l30 -24 0 -120 c0 -108 -2 -123 -19 -135 -35 -26
-9 -37 89 -37 120 0 131 4 105 37 -17 22 -20 41 -20 144 0 95 3 121 16 134 9
9 24 15 33 13 14 -3 16 -23 19 -142 2 -97 -1 -143 -10 -153 -19 -24 8 -33 104
-33 92 0 111 9 84 39 -13 14 -16 43 -16 154 0 149 -8 180 -51 203 -40 20 -79
17 -132 -10z"/>
<path d="M1645 405 c-183 -70 -178 -346 8 -396 53 -14 120 -5 164 22 60 37
120 139 82 139 -7 0 -27 -9 -45 -21 -42 -25 -113 -28 -147 -6 -30 20 -57 75
-57 119 0 64 57 136 95 122 7 -3 15 -23 19 -44 7 -42 27 -60 70 -60 36 0 63
42 48 75 -24 53 -155 81 -237 50z"/>
<path d="M878 371 c-49 -14 -88 -30 -88 -34 0 -5 10 -17 23 -27 20 -16 22 -29
25 -124 3 -86 1 -112 -12 -132 -9 -13 -14 -29 -11 -34 8 -13 185 -13 205 0 13
8 12 11 -5 24 -18 13 -20 29 -25 182 -3 99 -9 168 -15 169 -5 2 -49 -9 -97
-24z"/>
</g>
</svg>
