<?xml version="1.0" encoding="UTF-8" standalone="no"?>
<svg
   xmlns:dc="http://purl.org/dc/elements/1.1/"
   xmlns:cc="http://creativecommons.org/ns#"
   xmlns:rdf="http://www.w3.org/1999/02/22-rdf-syntax-ns#"
   xmlns:svg="http://www.w3.org/2000/svg"
   xmlns="http://www.w3.org/2000/svg"
   xmlns:xlink="http://www.w3.org/1999/xlink"
   id="svg29"
   version="1.1"
   viewBox="0 0 79.999397 25.709517"
   height="25.709517"
   width="79.999397">
  <metadata
     id="metadata33">
    <rdf:RDF>
      <cc:Work
         rdf:about="">
        <dc:format>image/svg+xml</dc:format>
        <dc:type
           rdf:resource="http://purl.org/dc/dcmitype/StillImage" />
      </cc:Work>
    </rdf:RDF>
  </metadata>
  <!-- Generator: Sketch 48.2 (47327) - http://www.bohemiancoding.com/sketch -->
  <title
     id="title2">Logo/Trade_Dark</title>
  <desc
     id="desc4">Created with Sketch.</desc>
  <defs
     id="defs8">
    <polygon
       points="19.692379,0.036458333 19.692379,25.745885 0.083917181,25.745885 0.083917181,0.036458333 "
       id="path-1" />
    <polygon
       points="18.24528,0.051923868 18.24528,19.264403 0.0054912551,19.264403 0.0054912551,0.051923868 "
       id="path-3" />
  </defs>
  <g
     transform="translate(-5,-10.180131)"
     style="fill:none;fill-rule:evenodd;stroke:none;stroke-width:1"
     id="Symbols">
    <g
       id="Logo/Trade_Dark">
      <g
         transform="translate(5,10)"
         id="Page-1">
        <polygon
           style="fill:#fff"
           points="4.1875772,6.4155324 4.1875772,25.576772 9.5450617,25.576772 9.5450617,6.4155324 13.732639,6.4155324 13.732639,1.5277752 0,1.5277752 0,6.4155324 "
           id="Fill-1" />
        <g
           transform="translate(14.223251,0.143673)"
           id="Group-12">
          <g
             transform="translate(25.925926)"
             id="Group-4">
            <mask
               fill="white"
               id="mask-2">
              <use
                 height="100%"
                 width="100%"
                 y="0"
                 x="0"
                 id="use11"
                 xlink:href="#path-1" />
            </mask>
            <g
               id="Clip-3" />
            <path
               style="fill:#fff"
               mask="url(#mask-2)"
               id="Fill-2"
               d="m 9.8799563,21.168789 c 2.7731737,0 4.7251797,-2.007819 4.7251797,-5.046374 0,-2.877778 -1.816615,-5.046913 -4.7251797,-5.046913 -2.8929013,0 -4.7574074,2.185699 -4.7574074,5.046913 0,3.167104 2.0861368,5.046374 4.7574074,5.046374 z m 5.0874227,2.422993 c -1.071425,1.347068 -3.10715,2.154193 -5.29447,2.154193 -5.5549898,0 -9.58899182,-3.960546 -9.58899182,-9.554424 0,-5.385211 3.54969132,-9.6584877 9.41525202,-9.6584877 1.9917958,0 3.7698818,0.5437242 5.1554788,1.5470936 V 0.03645833 h 5.037731 V 25.433423 h -4.725 z" />
          </g>
          <g
             transform="translate(47.530864,6.481481)"
             id="Group-7">
            <mask
               fill="white"
               id="mask-4">
              <use
                 height="100%"
                 width="100%"
                 y="0"
                 x="0"
                 id="use17"
                 xlink:href="#path-3" />
            </mask>
            <g
               id="Clip-6" />
            <path
               style="fill:#fff"
               mask="url(#mask-4)"
               id="Fill-5"
               d="M 5.3910622,7.5540586 H 13.033449 C 12.617734,5.6440021 11.359066,4.3594084 9.117374,4.3594084 c -1.8949332,0 -3.3849537,1.2635288 -3.7263118,3.1946502 z M 5.2866384,11.450149 c 0.2923868,2.05409 1.8843107,3.297994 4.2383487,3.297994 2.0362659,0 3.2895319,-1.017052 4.2624739,-2.545962 l 3.910854,2.280401 c -1.475257,2.849332 -4.468981,4.781893 -8.1733279,4.781893 -5.6284465,0 -9.51949584,-3.648174 -9.51949584,-9.5540635 0,-5.5587706 3.75223764,-9.65848763 9.13726854,-9.65848763 5.5933382,0 9.1025202,3.73261313 9.1025202,9.29138373 0,0.7777774 -0.03097,1.4992024 -0.09092,2.1068414 z" />
          </g>
          <path
             style="fill:#fff"
             id="Fill-8"
             d="m 16.771715,21.706103 c -1.327443,0 -2.403369,-1.076106 -2.403369,-2.403369 0,-1.327443 1.075926,-2.403369 2.403369,-2.403369 1.327444,0 2.40337,1.075926 2.40337,2.403369 0,1.327263 -1.075926,2.403369 -2.40337,2.403369 m 0.2625,-15.0685438 c -3.970267,0 -6.794032,3.0304526 -6.794032,5.9624228 h 4.662525 c 0.126029,-1.062603 0.986266,-1.936703 2.170576,-1.936703 1.275592,0 2.119265,0.939995 2.119265,2.22783 v 1.038117 c -0.762835,-0.429938 -1.870448,-0.690638 -3.10517,-0.690638 -3.818313,0 -6.392541,3.06376 -6.392541,6.221862 0,3.820113 2.981121,6.216101 6.423868,6.216101 1.66322,0 2.941152,-0.553627 3.768802,-1.424486 v 1.18125 h 4.273456 V 13.449236 c 0,-4.3321501 -2.874176,-6.8116768 -7.126749,-6.8116768" />
          <path
             style="fill:#fff"
             id="Fill-10"
             d="M 8.828534,12.035931 H 7.6467438 c -1.8065329,0 -2.4312757,0.868519 -2.4312757,2.466564 V 25.433333 H 0.179357 V 6.8460648 H 5.2154681 V 8.3398663 C 5.875679,7.4020319 6.9173971,6.7765689 8.828534,6.7765689 Z" />
        </g>
      </g>
    </g>
  </g>
</svg>
