
<svg width="2209px" height="944px" viewBox="0 0 2209 944" version="1.1" xmlns="http://www.w3.org/2000/svg" xmlns:xlink="http://www.w3.org/1999/xlink">
    <g id="Page-1" stroke="none" stroke-width="1" fill="none" fill-rule="evenodd">
        <g id="hbo-logo-svg-vector" fill="#000" fill-rule="nonzero">
            <path d="M641.451701,939.216792 L401.718566,939.216792 L401.718566,597.30785 L246.470481,597.30785 L246.470481,939.216792 L0.836103675,939.216792 L0.836103675,56.9096267 L246.470481,56.9096267 L246.470481,386.05632 L401.718566,386.05632 L401.718566,56.9096267 L641.451701,56.9096267 L641.451701,939.216792 Z M1740.91164,943.159601 C1986.54602,943.159601 2186.98076,738.795015 2186.98076,490.203532 C2186.98076,237.695179 1986.55899,42.1759738 1740.91164,42.1759738 C1492.33313,42.1759738 1366.56532,222.948557 1336.11231,296.642761 C1336.11231,187.580008 1227.03659,56.9096267 1100.29604,56.9096267 L690.58117,56.9096267 L690.58117,939.216792 L1071.81444,939.216792 C1227.03659,939.216792 1336.11231,806.575007 1336.11231,690.638278 C1370.48218,762.361078 1492.33313,943.159601 1740.91164,943.159601 Z M1041.34846,584.519662 C1076.71701,584.519662 1105.21158,618.902509 1105.21158,658.213866 C1105.21158,699.483658 1076.70404,733.866505 1041.34846,733.866505 L919.51049,733.866505 L919.51049,584.519662 L1041.34846,584.519662 Z M1041.34846,253.414534 C1076.71701,253.414534 1105.21158,287.797381 1105.21158,327.108739 C1105.21158,366.420096 1076.70404,400.802943 1041.34846,400.802943 L919.51049,400.802943 L919.51049,253.414534 L1041.34846,253.414534 L1041.34846,253.414534 Z M1202.48482,490.203532 C1230.97939,488.245097 1277.16473,455.820685 1294.84252,436.171491 C1287.95557,459.750524 1287.95557,534.41746 1294.84252,558.009463 C1275.18035,529.50192 1230.97939,495.119073 1202.48482,490.203532 L1202.48482,490.203532 Z M1516.87192,490.203532 C1516.87192,366.407126 1617.11523,266.189753 1740.89867,266.189753 C1864.68211,266.189753 1964.89948,366.407126 1964.89948,490.203532 C1964.89948,614.98564 1864.68211,715.215983 1740.89867,715.215983 C1617.11523,715.215983 1516.87192,614.98564 1516.87192,490.203532 L1516.87192,490.203532 Z M1740.91164,667.072216 C1836.21347,667.072216 1916.79462,588.462471 1916.79462,490.203532 C1916.79462,391.957563 1836.21347,314.33352 1740.91164,314.33352 C1642.6527,314.33352 1564.04296,391.957563 1564.04296,490.203532 C1563.84539,537.17231 1582.41627,582.27443 1615.62851,615.486665 C1648.84074,648.6989 1693.94286,667.269777 1740.91164,667.072216 Z M2083.66362,68.7250825 C2083.66362,36.3266098 2108.05974,11.8007844 2139.49845,11.8007844 C2170.43134,11.8007844 2194.9442,36.3266098 2194.9442,68.7250825 C2194.9442,101.746104 2170.41837,126.103322 2139.49845,126.103322 C2108.05974,126.103322 2083.66362,101.746104 2083.66362,68.7250825 Z M2139.49845,137.451867 C2176.81247,137.451867 2208.70512,108.438503 2208.70512,68.7250825 C2208.70512,29.3229368 2176.81247,0.296602959 2139.49845,0.296602959 C2101.75644,0.296602959 2069.81191,29.3229368 2069.81191,68.7250825 C2069.81191,108.425533 2101.75644,137.451867 2139.49845,137.451867 Z M2124.93341,74.1334744 L2138.73324,74.1334744 L2159.60159,108.425533 L2173.05124,108.425533 L2150.56166,73.6017141 C2162.11772,72.1880097 2171.07983,66.0144016 2171.07983,51.7995393 C2171.07983,36.3266098 2161.80645,29.3229368 2143.09108,29.3229368 L2113.00122,29.3229368 L2113.00122,108.425533 L2124.93341,108.425533 L2124.93341,74.1334744 Z M2124.93341,63.9911183 L2124.93341,39.569051 L2141.24937,39.569051 C2149.62784,39.569051 2158.5251,41.2940298 2158.5251,51.1380813 C2158.5251,63.3166905 2149.43329,63.9911183 2139.27797,63.9911183 L2124.93341,63.9911183 Z" id="Shape"></path>
        </g>
    </g>
</svg>
