
<svg width="45px" height="45px" viewBox="0 0 45 45" version="1.1" xmlns="http://www.w3.org/2000/svg" xmlns:xlink="http://www.w3.org/1999/xlink">
    <defs>
        <linearGradient x1="-63.6052258%" y1="-45.2091739%" x2="101.999998%" y2="100.999999%" id="linearGradient-1">
            <stop stop-color="#3023AE" offset="0%"></stop>
            <stop stop-color="#6CC4F4" offset="100%"></stop>
        </linearGradient>
    </defs>
    <g id="Page-1" stroke="none" stroke-width="1" fill="none" fill-rule="evenodd">
        <g id="Desktop-HD" transform="translate(-1130.000000, -652.000000)" fill="url(#linearGradient-1)">
            <g id="Text" transform="translate(120.000000, 573.000000)">
                <g id="Text_col_3" transform="translate(891.000000, 79.000000)">
                    <path d="M159,40 L124,40 L124,5 L141.5,5 L141.5,0 L124,0 C121.25,0 119,2.25 119,5 L119,40 C119,42.75 121.25,45 124,45 L159,45 C161.75,45 164,42.75 164,40 L164,22.5 L159,22.5 L159,40 L159,40 Z M146.5,0 L146.5,5 L155.5,5 L131,29.5 L134.5,33 L159,8.5 L159,17.5 L164,17.5 L164,0 L146.5,0 L146.5,0 Z" id="Scale"></path>
                </g>
            </g>
        </g>
    </g>
</svg>