
<svg width="24px" height="24px" viewBox="0 0 84 84" version="1.1" xmlns="http://www.w3.org/2000/svg" xmlns:xlink="http://www.w3.org/1999/xlink">
    <g id="Page-1" stroke="none" stroke-width="1" fill="none" fill-rule="evenodd">
        <g id="noun_subscription_456172" fill="#757575">
            <g id="Group">
                <polygon id="Path" points="78.2 5.8 78.2 63.2 83.2 63.2 83.2 0.8 20.8 0.8 20.8 5.8"></polygon>
                <polygon id="Path" points="10.8 10.8 10.8 15.8 68.2 15.8 68.2 73.2 73.2 73.2 73.2 10.8"></polygon>
                <path d="M63.2,20.8 L0.8,20.8 L0.8,83.2 L63.2,83.2 L63.2,20.8 Z M16.1,46.5 C17.7,42.2 20.8,38.9 24.9,37 C29,35.1 33.6,34.9 37.9,36.5 C42.6,38.2 46.3,42 48,46.7 L51.7,46.7 L45.6,57.6 L39.3,46.9 L42.6,46.9 C41.2,44.4 39,42.4 36.2,41.4 C33.2,40.3 29.9,40.4 27,41.7 C24.1,43 21.9,45.4 20.8,48.4 C18.5,54.6 21.7,61.5 27.9,63.8 C29.2,64.3 29.9,65.7 29.4,67 C29,68 28.1,68.6 27.1,68.6 C26.8,68.6 26.5,68.5 26.2,68.4 C17.3,65.1 12.8,55.3 16.1,46.5 Z" id="Shape" fill-rule="nonzero"></path>
            </g>
        </g>
    </g>
</svg>