
<svg width="1960px" height="1394px" viewBox="0 0 1960 1394" version="1.1" xmlns="http://www.w3.org/2000/svg" xmlns:xlink="http://www.w3.org/1999/xlink">
    <defs>
        <linearGradient x1="102.765767%" y1="-5.00672625%" x2="2.89394637%" y2="105.206003%" id="linearGradient-1">
            <stop stop-color="#540EA4" offset="0%"></stop>
            <stop stop-color="#2A1542" offset="100%"></stop>
        </linearGradient>
        <linearGradient x1="0%" y1="0%" x2="99.9364143%" y2="98.9566465%" id="linearGradient-2">
            <stop stop-color="#34299C" offset="0%"></stop>
            <stop stop-color="#C86DD7" offset="100%"></stop>
        </linearGradient>
        <linearGradient x1="0%" y1="0%" x2="101.999998%" y2="100.999999%" id="linearGradient-3">
            <stop stop-color="#3023AE" offset="0%"></stop>
            <stop stop-color="#C86DD7" offset="100%"></stop>
        </linearGradient>
    </defs>
    <g id="Page-1" stroke="none" stroke-width="1" fill="none" fill-rule="evenodd">
        <g id="Desktop-HD">
            <g id="Small-ovals-">
                <rect id="gradient-overlay" fill="url(#linearGradient-1)" style="mix-blend-mode: soft-light;" x="0" y="0" width="1960" height="1394"></rect>
                <ellipse id="Oval-2-Copy-2" fill="url(#linearGradient-2)" opacity="0.163949275" cx="978.5" cy="949.5" rx="269.5" ry="259.5"></ellipse>
                <circle id="Oval-1" fill="#4EDCFD" cx="745.5" cy="928.5" r="3.5"></circle>
                <circle id="Oval-1-Copy" fill="#4EDCFD" cx="100.5" cy="715.5" r="3.5"></circle>
                <circle id="Oval-2" fill="#6973FE" cx="1538.5" cy="288.5" r="3.5"></circle>
                <circle id="Oval-2-Copy-4" fill="#6973FE" cx="430.5" cy="1271.5" r="3.5"></circle>
                <circle id="Oval-2-Copy-5" fill="#6973FE" cx="195.5" cy="40.5" r="3.5"></circle>
                <circle id="Oval-2-Copy-3" fill="#6973FE" cx="1234.5" cy="33.5" r="3.5"></circle>
                <circle id="Oval-3" fill="#6973FE" cx="39.5" cy="388.5" r="3.5"></circle>
                <circle id="Oval-3-Copy" fill="#6973FE" cx="1914.5" cy="359.5" r="3.5"></circle>
                <circle id="Oval-4" fill="#F19EFD" cx="907.5" cy="497.5" r="3.5"></circle>
                <circle id="Oval-4-Copy-2" fill="#F19EFD" cx="1861.5" cy="782.5" r="3.5"></circle>
                <circle id="Oval-4-Copy" fill="#F19EFD" cx="288.5" cy="921.5" r="3.5"></circle>
                <circle id="Oval-6" fill="#F19EFD" cx="1557.5" cy="343.5" r="2.5"></circle>
                <circle id="Oval-7" fill="#F19EFD" cx="618.5" cy="403.5" r="2.5"></circle>
                <circle id="Oval-8" fill="#93CBFF" opacity="0.599999964" cx="505.5" cy="1106.5" r="3.5"></circle>
                <circle id="Oval-9" fill="#93CBFF" cx="913.5" cy="1042.5" r="2.5"></circle>
                <path d="M1445.48958,573.639764 C1568.94203,559.921198 1561.30637,529.941323 1574.08428,449.871128 C1586.86219,369.800932 1462.69563,312.044085 1402.42139,336.787471 C1342.14714,361.530858 1370.52699,405.919072 1316.89489,449.871128 C1263.26279,493.823183 1322.03713,587.358329 1445.48958,573.639764 Z" id="Oval-blue" fill="url(#linearGradient-3)"></path>
                <ellipse id="Oval-2" fill="#FFFFFF" opacity="0.300000012" cx="1506.5" cy="543.5" rx="76.5" ry="73.5"></ellipse>
                <ellipse id="Oval-2-Copy" fill="#FFFFFF" opacity="0.3" cx="916.5" cy="252" rx="34.5" ry="33"></ellipse>
            </g>
        </g>
    </g>
</svg>