<svg version="1.0" xmlns="http://www.w3.org/2000/svg"
 width="120.000000pt" height="120.000000pt" viewBox="0 0 120.000000 120.000000"
 preserveAspectRatio="xMidYMid meet">
<metadata>
Created by potrace 1.15, written by Peter Selinger 2001-2017
</metadata>
<g transform="translate(0.000000,120.000000) scale(0.100000,-0.100000)"
fill="#EC6B2C" stroke="none">
<path d="M450 1174 c-194 -51 -354 -197 -422 -386 -19 -53 -23 -83 -23 -193 0
-111 4 -140 23 -194 62 -171 202 -311 373 -373 54 -19 84 -23 194 -23 110 0
140 4 193 23 242 87 402 313 402 567 0 273 -188 512 -455 580 -74 19 -212 18
-285 -1z m282 -83 c261 -72 427 -349 367 -611 -41 -180 -195 -338 -375 -384
-380 -98 -726 248 -628 628 46 178 204 334 380 375 67 16 185 12 256 -8z"/>
<path d="M750 949 c-9 -15 -8 -25 3 -42 23 -35 27 -76 8 -82 -15 -5 -44 -29
-134 -114 l-37 -35 -48 45 c-26 25 -65 60 -87 79 -44 37 -48 53 -25 90 9 14
15 31 14 38 -1 6 -2 17 -3 22 -3 25 -31 5 -77 -52 -94 -120 -124 -166 -118
-182 9 -24 40 -19 58 9 9 14 25 25 35 25 11 0 21 6 24 13 7 19 96 -31 113 -64
8 -16 26 -39 40 -52 l26 -24 -22 -16 c-12 -9 -78 -70 -147 -137 -124 -123
-142 -152 -95 -158 27 -4 45 10 191 146 63 59 117 107 121 107 4 0 68 -56 143
-125 75 -68 146 -128 158 -132 22 -9 49 5 49 25 0 6 -66 74 -147 152 l-147
142 42 37 c23 21 42 44 42 51 0 7 18 25 41 39 36 24 43 26 57 13 10 -8 22 -12
29 -10 6 2 19 -10 29 -26 10 -17 22 -31 25 -31 11 0 40 31 37 39 -9 20 -173
231 -179 231 -5 0 -13 -9 -19 -21z"/>
</g>
</svg>
