<?xml version="1.0" standalone="no"?>
<!DOCTYPE svg PUBLIC "-//W3C//DTD SVG 20010904//EN"
 "http://www.w3.org/TR/2001/REC-SVG-20010904/DTD/svg10.dtd">
<svg version="1.0" xmlns="http://www.w3.org/2000/svg"
 width="172.000000pt" height="218.000000pt" viewBox="0 0 172.000000 218.000000"
 preserveAspectRatio="xMidYMid meet">
<metadata>
Created by potrace 1.15, written by Peter Selinger 2001-2017
</metadata>
<g transform="translate(0.000000,218.000000) scale(0.100000,-0.100000)"
fill="#000000" stroke="none">
<path d="M813 2162 c-37 -36 -613 -1049 -613 -1076 0 -15 11 -37 25 -51 l24
-25 609 0 c601 0 610 0 636 21 52 41 49 47 -270 600 -163 283 -305 522 -316
532 -26 22 -73 22 -95 -1z m274 -604 l221 -383 -224 -3 c-123 -1 -324 -1 -447
0 l-223 3 221 382 c121 211 223 383 226 383 3 0 105 -172 226 -382z"/>
<path d="M346 668 c-40 -38 -336 -562 -336 -597 0 -60 77 -95 121 -55 10 9 82
128 161 264 l143 248 121 4 c103 2 125 6 143 22 32 29 29 88 -5 115 -24 19
-40 21 -175 21 -139 0 -149 -1 -173 -22z"/>
<path d="M1025 665 c-14 -13 -25 -35 -25 -49 0 -69 35 -86 178 -86 l108 0 134
-232 c170 -297 171 -298 219 -298 65 0 94 55 62 117 -62 122 -306 532 -327
551 -24 21 -34 22 -175 22 -146 0 -151 -1 -174 -25z"/>
</g>
</svg>
