<svg xmlns="http://www.w3.org/2000/svg" xmlns:xlink="http://www.w3.org/1999/xlink" version="1.1" id="Layer_1" x="0px" y="0px" viewBox="0 0 182.6 119.7" style="enable-background:new 0 0 182.6 119.7;" xml:space="preserve" fill="#fff" >
<polygon points="69.9,91.1 82.3,91.1 105.3,28 92.9,28 "/>
<path d="M150,27.4c-18,0-32.3,14.7-32.3,32.3c0,17.8,14.5,32.2,32.3,32.2c17.9,0,32.6-14.5,32.6-32.2S167.9,27.4,150,27.4z   M150.1,80.2c-11.3,0-20.1-9.3-20.1-20.4c0-10.9,8.6-20.6,20.1-20.6c11.2,0,20.1,9.2,20.1,20.4C170.2,70.6,161.5,80.2,150.1,80.2z"/>
<path d="M46.9,74.1c-3.6,3.7-8.6,6.1-14.3,6.1c-11.4,0-20.2-9.3-20.2-20.4c0-11,8.7-20.6,20-20.6c5.5,0,10.6,2.3,14.2,5.9l8.4-8.4  c-5.8-5.7-13.8-9.3-22.6-9.3C14.3,27.4,0,42.1,0,59.7c0,17.8,14.5,32.2,32.3,32.2c8.9,0,17.1-3.6,22.9-9.5l-8.1-8.1L46.9,74.1z"/>
</svg>
